<?xml version="1.0" encoding="utf-8"?>
<!-- Generator: Adobe Illustrator 25.0.0, SVG Export Plug-In . SVG Version: 6.00 Build 0)  -->
<svg version="1.1" id="Illustration" xmlns="http://www.w3.org/2000/svg" xmlns:xlink="http://www.w3.org/1999/xlink" x="0px"
	 y="0px" viewBox="0 0 1280 1024" style="enable-background:new 0 0 1280 1024;" xml:space="preserve">
<style type="text/css">
	.st0{fill:#f3f4f6;}
	.st1{fill:none;stroke:#001465;stroke-linecap:round;stroke-miterlimit:10;}
	.st2{fill:#f3f4f6;stroke:#001465;stroke-linecap:round;stroke-miterlimit:10;}
	.st3{fill:#0ea5e9;stroke:#001465;stroke-linecap:round;stroke-miterlimit:10;}
	.st4{fill:#fff;stroke:#001465;stroke-linecap:round;stroke-miterlimit:10;}
	.st5{fill:#f97316;stroke:#001465;stroke-linecap:round;stroke-miterlimit:10;}
	.st6{fill:#f3f4f6;stroke:#001465;stroke-linecap:round;stroke-miterlimit:10;}
	.st7{fill:#f3f4f6;stroke:#001465;stroke-linecap:round;stroke-miterlimit:10;}
</style>
<circle class="st0" cx="740.35" cy="445.04" r="251.65"/>
<path class="st1" d="M597.34,209.5l-5.75-34.31c-0.35-2.1-3.1-2.67-4.26-0.87c-3.83,5.94-8.95,16.8-3.88,26.94
	c4.05,8.1,8.26,10.99,11.26,11.93c1.88,0.59,3.56-1.35,2.79-3.16l0,0C597.42,209.86,597.37,209.68,597.34,209.5z"/>
<path class="st2" d="M588.19,181.98c1.21,14.68,4.44,26.11,7.13,33.73c2.76,7.82,4.82,13.51,9.52,19.61
	c8.34,10.83,19.32,15.6,25.45,17.68c-0.42,5.12-0.84,10.24-1.26,15.35c0,0,42.8,13.68,45.33-7.48c0,0-10.25-22.69-7.85-44.65
	s-3.14-74.32-47.62-60.39C618.89,155.84,597.04,154.43,588.19,181.98z"/>
<path class="st3" d="M561.77,455.84c0,0-42.19,114.58-30.58,181.94c0,0,6.19,184.26,28.26,229.94c0,0,31.74-5.42,33.29-12.39
	c0,0-5.81-78.97-11.61-100.65l3.87-18.19c0,0-3.55-91.03,12.39-98.32C668.28,605.74,691.23,418.6,561.77,455.84z"/>
<path class="st3" d="M531.61,709.38c0.93-0.35,25.31-8.84,73.13,33.3l-13.93,32.51c0,0-125.42-26.32-123.87-43.74
	c1.54-17.42,16.64-75.08,160.57-203.55"/>
<path class="st3" d="M531.58,709.39c0,0,0.01,0,0.03-0.01c1.93-1.37,107.99-76.24,152.87-117.28
	c45.29-41.42,17.06-123.49,17.06-123.49c-24.93-5.54-41.65-3.05-52.81,3.33"/>
<path class="st1" d="M588.58,524.35c0,0,10.57,22.59,14.92,25.43"/>
<ellipse class="st4" cx="636.68" cy="499.19" rx="26.52" ry="30.58"/>
<path class="st5" d="M700.61,419.06c0,0,51.87,47.48,59.1,27.61c7.23-19.87,11.61-33.81,7.48-52.65s-12.39-35.23-13.68-58
	c-1.29-22.77-9.29-65.61-39.48-71.55c-30.19-5.94-42.58-8.93-42.58-8.93s-11.28,20.27-44.9,0c-6.29-3.79-9.43-5.94-15.09-10.42
	c-18.25-14.47-25.8-24.22-34.46-36.39c-10.84-15.23-17.55-36.58-28.65-42.94l40.52-34.12l-22.45-23.59l-42.55,29.6
	c-13.21,9.19-17.82,26.61-10.87,41.12c11.56,24.11,28.43,57.82,35.87,65.27c11.87,11.88,33.81,45.17,27.35,68.4
	c-6.45,23.23-7.48,48.77-2.32,57.29c5.16,8.52-21.16,99.35-21.16,99.35s62.45,25.29,156.39,5.16
	C709.13,474.29,700.1,448.23,700.61,419.06z"/>
<path class="st4" d="M624.06,367.84l23.32-37.51c1.66-2.67,5.05-3.69,7.91-2.37l11.14,5.16c3.37,1.56,4.64,5.69,2.72,8.87
	l-23.24,38.62c-1.73,2.88-5.44,3.87-8.38,2.23l-11.22-6.26C623.21,374.84,622.18,370.86,624.06,367.84z"/>
<path class="st2" d="M595.13,125.79c0.4,0.36,1,0.36,1.4,0c6.19-5.6,51.88-46.68,61.5-47.89c9.32-1.16,19.9-7.17,21.87-8.32
	c0.21-0.13,0.37-0.32,0.45-0.55l7.35-20.5c0.33-0.93-0.71-1.75-1.53-1.21l-2.39,1.56c5.15-3.24,2.37-6.07-2.85-7.07
	c-7.58-1.45-15.25,2.09-19.5,8.54c-1.22,1.86-2.32,3.45-2.53,3.49c-4.03,0.85-20.05,4.37-22.31,7.29
	c-2.58,3.35-2.06,8.26-8.52,12.13c-5.84,3.5-45.96,27.96-53.49,32.55c-0.61,0.37-0.68,1.22-0.15,1.69L595.13,125.79z"/>
<path class="st2" d="M587.22,136.74l18.16-13.94c0,0-23.23-6.71-25.55-25.55l-19.1,12.9C560.74,110.16,574.74,130.03,587.22,136.74z
	"/>
<path class="st2" d="M698.29,385.77c0.26-0.77-26.06-5.68-29.42-22.19c-3.35-16.52-1.03-21.42-16.77-26.06
	c-15.74-4.65-18.19,3.1-18.19,3.1s-5.33,3.86-4.72,6.68c0.04,0.19,0.11,0.37,0.2,0.55c0,0-8.43,2.23-2.94,6.45
	c0.19,0.15,0.25,0.41,0.12,0.62c-0.83,1.29-3.45,4.81-0.8,6c2.84,1.28,9.55-1.19,11.1-2.48c0,0,7.23,4.71,11.87,2.48
	c0,0-2.84,26.42,9.29,29c12.13,2.58,38.97,26.06,38.97,26.06L698.29,385.77z"/>
<path class="st2" d="M703.19,389.65l16.77,4.65c0,0-12.65-61.16-10.84-65.81C709.13,328.48,697.28,362.29,703.19,389.65z"/>
<path class="st1" d="M583.97,264.74c0,0,3.32,27.79-6.6,39.96"/>
<path class="st2" d="M689.26,415.97c1.03,0.26,19.35,16.77,19.35,16.77s2.06-36.13-2.06-45.42l-18.58-7.48L689.26,415.97z"/>
<path class="st1" d="M591.19,264.74c-0.77-0.77-6.78,23.2-8.69,28.86"/>
<path class="st1" d="M719.65,392.75c0,0,19.15,8.25,20.7,17.54"/>
<path class="st1" d="M719.97,394.29c0,0,13.16,7.23,14.45,13.42"/>
<path class="st2" d="M607.45,745.77c0,0,64.26,42.97,86.32,29.42c0,0,12.77,1.94,9.68,15.48c-3.1,13.55,1.94,38.32-14.32,39.87
	c0,0-4.26-27.1-27.1-33.29c-22.84-6.19-73.45-25.55-73.45-25.55L607.45,745.77z"/>
<path class="st6" d="M693.77,775.19c0,0,19.37-7.74,16.46,12.97c-2.91,20.71-1.87,27.21-6.3,54.85
	c-0.87,5.44-13.26,16.18-21.39,16.57c0,0,4.65-30.58,6.58-32.9S704.61,799.19,693.77,775.19z"/>
<path class="st2" d="M592.25,849.05c-0.12-1.57,0,68.99,0,68.99l9.4,8.52l-22.84,42.97h-18.19c0,0,15.87-18.97,10.84-52.26
	c-5.03-33.29-10.84-59.61-10.84-59.61L592.25,849.05z"/>
<path class="st6" d="M547.45,981.9c-1.52-0.82,17.34-19.01,17.34-19.01s14.58,6.94,34.04-38.9l6.76,5.53
	c2.88,2.36,3.15,6.68,0.57,9.37l-12.08,12.65c-0.89,0.93-1.62,1.99-2.16,3.16l-5.63,11.97c-4.46,9.47-13.35,16.25-23.74,17.57
	C557.56,984.87,552.23,984.48,547.45,981.9z"/>
<path class="st1" d="M674.42,484.48c0,0,17.42,48.39-46.84,101.42c-64.26,53.03-98.41,94.06-98.41,94.06"/>
<path class="st1" d="M494.42,721c0,0,13.94-9.68,37.16-11.61"/>
<line class="st1" x1="509.9" y1="727.19" x2="597.78" y2="758.93"/>
<path class="st1" d="M646.94,73.77c0,0,0.27-11.47,12.04-11.2c6.08,0.14,11.29,0.14,14.9,0.1c2.88-0.03,5.34-2.1,5.81-4.94
	c0.61-3.67,2.02-8.3,5.29-9.63"/>
<path class="st7" d="M640,139.32c0,0,23.97-21.16,45.39,6.97s-7.23,74.06-17.55,72.77C667.84,219.06,678.23,158.16,640,139.32z"/>
<path class="st7" d="M590.13,196.1c0,0-19.13-56.49,40.81-60.13c59.95-3.64,40.3,80.18,35.46,92.93c0,0-6.89-25.51-3.57-35.14
	c0,0-13.26-1.56-20.66-14.32c-7.4-12.76-34.18,1.56-37.24-14.32c0,0-1.79,9.89-8.16,14.84S589.87,190.9,590.13,196.1z"/>
<path class="st2" d="M658.62,173.92c0,0-11.1-30.01-53.55-30.58c0,0,6.47-4.34,9.68-4s46.63,0.64,52.96,30.34L658.62,173.92z"/>
<path class="st1" d="M600.31,207.39c0,0,7.08-1.31,10.14-4.46"/>
<path class="st1" d="M625.55,198.94c0,0,6.45,2.84,14.71-1.81"/>
<path class="st1" d="M626.03,233.29c0,0,6.87,1.58,14.11-4.53"/>
<path class="st1" d="M614.13,196.07c1.5,3.53,3.11,8.32,3.97,14.16c0.71,4.87,0.7,9.16,0.45,12.57c0.03,0.17,0.22,1.2,1.21,1.85
	c0.62,0.4,1.4,0.56,2.18,0.36c2.39-0.61,4.78-1.23,7.17-1.84"/>
<path class="st1" d="M654.42,234.55c-1.31,2.58-3.32,5.87-6.36,9.02c-6.48,6.72-13.62,8.66-16.92,9.3"/>
<circle class="st2" cx="666.57" cy="183.17" r="17.37"/>
<path class="st2" d="M667.02,39.71"/>
<path class="st2" d="M675,47.06"/>
<path class="st1" d="M673.49,41.93c0,0-6.07,6.29-7.91,10.65"/>
<path class="st1" d="M678.96,41.74c0,0-6.07,6.29-7.91,10.65"/>
<path class="st1" d="M683.32,42.78c0,0-6.07,6.29-7.91,10.65"/>
<path class="st2" d="M626.57,354.9c0,0,3.23-1.84,6.72-1.93"/>
<path class="st2" d="M629.39,347.84c0,0,4.72-0.97,5.57-0.68"/>
<path class="st2" d="M633.9,340.61c0,0,2.48-1.03,4.52,0"/>
<path class="st3" d="M488.23,535.19"/>
<path class="st2" d="M602.03,734.16l-17.41,39.69l11.99,2.89c0,0,12.77-22.84,14.32-32.52L602.03,734.16z"/>
<path class="st2" d="M554.4,854.05c0,0,31.76-6.31,37.38-11.04l0.97,12.31c0,0-0.77,10.06-33.29,12.39L554.4,854.05z"/>
<path class="st1" d="M592.55,199.08c0,0,5.49-8.56,14.81-7.75"/>
<path class="st1" d="M640.09,188.11c0,0-10.8-5.74-20.39,0.72"/>
</svg>
